
<svg version="1.1" id="Capa_1" xmlns="http://www.w3.org/2000/svg" x="0px" y="0px"
	 viewBox="0 0 60 60" style="enable-background:new 0 0 60 60;" xml:space="preserve">
	<path d="M59.261,46.849L44.166,29.152c-0.25-0.293-0.645-0.418-1.02-0.316c-0.373,0.1-0.654,0.405-0.725,0.784l-4.224,22.873
		c-0.08,0.434,0.134,0.869,0.525,1.07c0.146,0.075,0.302,0.111,0.458,0.111c0.265,0,0.525-0.105,0.719-0.305l6.879-7.115
		l3.484,13.003C50.383,59.706,50.787,60,51.228,60c0.086,0,0.173-0.011,0.26-0.034c0.533-0.143,0.85-0.691,0.707-1.225
		l-3.484-13.003l9.514,2.722c0.424,0.117,0.877-0.05,1.116-0.421S59.547,47.185,59.261,46.849z"/>
	<path d="M35.5,50H35c-0.553,0-1,0.447-1,1s0.447,1,1,1h0.5c0.553,0,1-0.447,1-1S36.053,50,35.5,50z"/>
	<path d="M21.412,50h-0.971c-0.553,0-1,0.447-1,1s0.447,1,1,1h0.971c0.553,0,1-0.447,1-1S21.965,50,21.412,50z"/>
	<path d="M6.853,50H5.883c-0.553,0-1,0.447-1,1s0.447,1,1,1h0.971c0.553,0,1-0.447,1-1S7.406,50,6.853,50z"/>
	<path d="M16.56,50h-0.971c-0.553,0-1,0.447-1,1s0.447,1,1,1h0.971c0.553,0,1-0.447,1-1S17.112,50,16.56,50z"/>
	<path d="M26.266,50h-0.971c-0.553,0-1,0.447-1,1s0.447,1,1,1h0.971c0.553,0,1-0.447,1-1S26.818,50,26.266,50z"/>
	<path d="M11.706,50h-0.971c-0.553,0-1,0.447-1,1s0.447,1,1,1h0.971c0.553,0,1-0.447,1-1S12.259,50,11.706,50z"/>
	<path d="M31.118,50h-0.971c-0.553,0-1,0.447-1,1s0.447,1,1,1h0.971c0.553,0,1-0.447,1-1S31.671,50,31.118,50z"/>
	<path d="M2.412,50.088C2.255,49.741,1.905,49.5,1.5,49.5c-0.553,0-1,0.447-1,1V51c0,0.553,0.447,1,1,1H2c0.553,0,1-0.447,1-1
		C3,50.595,2.759,50.245,2.412,50.088z"/>
	<path d="M1.5,47.5c0.553,0,1-0.447,1-1v-1c0-0.553-0.447-1-1-1s-1,0.447-1,1v1C0.5,47.053,0.947,47.5,1.5,47.5z"/>
	<path d="M1.5,37.5c0.553,0,1-0.447,1-1v-1c0-0.553-0.447-1-1-1s-1,0.447-1,1v1C0.5,37.053,0.947,37.5,1.5,37.5z"/>
	<path d="M1.5,42.5c0.553,0,1-0.447,1-1v-1c0-0.553-0.447-1-1-1s-1,0.447-1,1v1C0.5,42.053,0.947,42.5,1.5,42.5z"/>
	<path d="M1.5,7.5c0.553,0,1-0.447,1-1v-1c0-0.553-0.447-1-1-1s-1,0.447-1,1v1C0.5,7.053,0.947,7.5,1.5,7.5z"/>
	<path d="M1.5,12.5c0.553,0,1-0.447,1-1v-1c0-0.553-0.447-1-1-1s-1,0.447-1,1v1C0.5,12.053,0.947,12.5,1.5,12.5z"/>
	<path d="M1.5,27.5c0.553,0,1-0.447,1-1v-1c0-0.553-0.447-1-1-1s-1,0.447-1,1v1C0.5,27.053,0.947,27.5,1.5,27.5z"/>
	<path d="M1.5,17.5c0.553,0,1-0.447,1-1v-1c0-0.553-0.447-1-1-1s-1,0.447-1,1v1C0.5,17.053,0.947,17.5,1.5,17.5z"/>
	<path d="M1.5,22.5c0.553,0,1-0.447,1-1v-1c0-0.553-0.447-1-1-1s-1,0.447-1,1v1C0.5,22.053,0.947,22.5,1.5,22.5z"/>
	<path d="M1.5,32.5c0.553,0,1-0.447,1-1v-1c0-0.553-0.447-1-1-1s-1,0.447-1,1v1C0.5,32.053,0.947,32.5,1.5,32.5z"/>
	<path d="M2,0H1.5c-0.553,0-1,0.447-1,1v0.5c0,0.553,0.447,1,1,1c0.405,0,0.755-0.241,0.912-0.588C2.759,1.755,3,1.405,3,1
		C3,0.447,2.553,0,2,0z"/>
	<path d="M32,0h-1c-0.553,0-1,0.447-1,1s0.447,1,1,1h1c0.553,0,1-0.447,1-1S32.553,0,32,0z"/>
	<path d="M27,0h-1c-0.553,0-1,0.447-1,1s0.447,1,1,1h1c0.553,0,1-0.447,1-1S27.553,0,27,0z"/>
	<path d="M41,2h1c0.553,0,1-0.447,1-1s-0.447-1-1-1h-1c-0.553,0-1,0.447-1,1S40.447,2,41,2z"/>
	<path d="M46,2h1c0.553,0,1-0.447,1-1s-0.447-1-1-1h-1c-0.553,0-1,0.447-1,1S45.447,2,46,2z"/>
	<path d="M22,0h-1c-0.553,0-1,0.447-1,1s0.447,1,1,1h1c0.553,0,1-0.447,1-1S22.553,0,22,0z"/>
	<path d="M37,0h-1c-0.553,0-1,0.447-1,1s0.447,1,1,1h1c0.553,0,1-0.447,1-1S37.553,0,37,0z"/>
	<path d="M7,0H6C5.447,0,5,0.447,5,1s0.447,1,1,1h1c0.553,0,1-0.447,1-1S7.553,0,7,0z"/>
	<path d="M12,0h-1c-0.553,0-1,0.447-1,1s0.447,1,1,1h1c0.553,0,1-0.447,1-1S12.553,0,12,0z"/>
	<path d="M17,0h-1c-0.553,0-1,0.447-1,1s0.447,1,1,1h1c0.553,0,1-0.447,1-1S17.553,0,17,0z"/>
	<path d="M50.588,1.912C50.745,2.259,51.095,2.5,51.5,2.5c0.553,0,1-0.447,1-1V1c0-0.553-0.447-1-1-1H51c-0.553,0-1,0.447-1,1
		C50,1.405,50.241,1.755,50.588,1.912z"/>
	<path d="M52.5,24.673c0-0.553-0.447-1-1-1s-1,0.447-1,1v0.966c0,0.553,0.447,1,1,1s1-0.447,1-1V24.673z"/>
	<path d="M52.5,5.362c0-0.553-0.447-1-1-1s-1,0.447-1,1v0.966c0,0.553,0.447,1,1,1s1-0.447,1-1V5.362z"/>
	<path d="M52.5,19.846c0-0.553-0.447-1-1-1s-1,0.447-1,1v0.965c0,0.553,0.447,1,1,1s1-0.447,1-1V19.846z"/>
	<path d="M52.5,15.018c0-0.553-0.447-1-1-1s-1,0.447-1,1v0.966c0,0.553,0.447,1,1,1s1-0.447,1-1V15.018z"/>
	<path d="M52.5,10.19c0-0.553-0.447-1-1-1s-1,0.447-1,1v0.965c0,0.553,0.447,1,1,1s1-0.447,1-1V10.19z"/>
	<path d="M51.5,28.5c-0.553,0-1,0.447-1,1V30c0,0.553,0.447,1,1,1s1-0.447,1-1v-0.5C52.5,28.947,52.053,28.5,51.5,28.5z"/>
</svg>
